<svg width="39" height="53" viewBox="0 0 39 53" fill="none" xmlns="http://www.w3.org/2000/svg">
<path fill-rule="evenodd" clip-rule="evenodd" d="M6.32904 5.57653C-0.42419 12.3298 -0.953777 22.9499 4.74028 30.3096L19.2378 51.9309C19.4094 52.1867 19.7856 52.1869 19.9574 51.9312L34.7573 29.907C37.0112 26.8261 38.208 23.2134 38.3477 19.5677H27.4745C27.1629 19.5677 26.864 19.4439 26.6437 19.2236L19.2497 11.8296L12.4348 18.6444V27.5575H25.5945C26.2434 27.5575 26.7695 28.0836 26.7695 28.7325C26.7695 29.3814 26.2434 29.9075 25.5945 29.9075H11.2598C10.6109 29.9075 10.0848 29.3814 10.0848 28.7325V18.1577C10.0848 17.8461 10.2086 17.5472 10.429 17.3269L18.4188 9.33706C18.8777 8.8782 19.6216 8.8782 20.0805 9.33706L27.9612 17.2178H38.2913C37.9239 12.9714 36.1153 8.82625 32.8656 5.57653C25.5377 -1.75134 13.6569 -1.75134 6.32904 5.57653Z" fill="url(#paint0_linear_32_1147)"/>
<defs>
<linearGradient id="paint0_linear_32_1147" x1="19.6229" y1="34.5588" x2="26.2332" y2="2.21775" gradientUnits="userSpaceOnUse">
<stop stop-color="#812459"/>
<stop offset="1" stop-color="#C23987"/>
</linearGradient>
</defs>
</svg>
