<svg width="117" height="57" viewBox="0 0 117 57" fill="none" xmlns="http://www.w3.org/2000/svg">
<g filter="url(#filter0_f_221_2182)">
<ellipse cx="1.21693" cy="9.97423" rx="1.21693" ry="9.97423" transform="matrix(0.0191068 0.999817 0.999817 -0.0191068 9.68677 53.5664)" fill="#D9D9D9"/>
</g>
<path d="M4.74017 30.31C-0.953897 22.9503 -0.424316 12.3302 6.32891 5.57696C13.6568 -1.75091 25.5376 -1.75091 32.8655 5.57696C39.4966 12.208 40.1271 22.5674 34.7571 29.9075L19.9573 51.9317C19.7855 52.1873 19.4092 52.1871 19.2377 51.9313L4.74017 30.31Z" fill="#B3C5ED"/>
<path fill-rule="evenodd" clip-rule="evenodd" d="M6.32916 5.57696C-0.424068 12.3302 -0.953655 22.9503 4.74041 30.31L19.2379 51.9313C19.4095 52.1871 19.7857 52.1873 19.9575 51.9316L34.7574 29.9074C37.0113 26.8266 38.2081 23.2138 38.3478 19.5681H27.4746C27.163 19.5681 26.8641 19.4443 26.6438 19.224L19.2498 11.83L12.4349 18.6449V27.558H25.5946C26.2436 27.558 26.7696 28.084 26.7696 28.733C26.7696 29.3819 26.2436 29.9079 25.5946 29.9079H11.2599C10.611 29.9079 10.085 29.3819 10.085 28.733V18.1582C10.085 17.8465 10.2087 17.5477 10.4291 17.3273L18.4189 9.33748C18.8778 8.87863 19.6217 8.87863 20.0806 9.33748L27.9613 17.2182H38.2914C37.924 12.9718 36.1155 8.82668 32.8657 5.57696C25.5379 -1.75091 13.657 -1.75091 6.32916 5.57696Z" fill="url(#paint0_linear_221_2182)"/>
<path d="M41.926 40.734H49.4526V39.6247H43.0411V34.3553H48.3375V33.2459H43.0411V27.9765H49.4526V26.8672H41.926V40.734Z" fill="#525B70"/>
<path d="M51.3088 40.734H52.4239V36.1118C52.4239 34.2444 54.0407 32.5988 55.9548 32.5988C57.9062 32.5988 59.4858 34.1704 59.4858 36.1118V40.734H60.6009V36.1118C60.6009 33.5603 58.5194 31.4895 55.9548 31.4895C54.5424 31.4895 53.2787 32.1181 52.4239 33.1165V31.4895H51.3088V40.734Z" fill="#525B70"/>
<path d="M72.8591 39.6247V26.8672H71.7441V40.734H79.2706V39.6247H72.8591Z" fill="#525B70"/>
<path d="M81.1305 40.734H82.2455V31.4895H81.1305V40.734ZM83.1747 29.7145L82.6172 28.7531L80.2013 30.1583L80.7588 31.1197L83.1747 29.7145Z" fill="#525B70"/>
<path d="M84.5569 40.734H85.672V36.1118C85.672 34.2444 87.2888 32.5988 89.2029 32.5988C91.1543 32.5988 92.7339 34.1704 92.7339 36.1118V40.734H93.849V36.1118C93.849 33.5603 91.7675 31.4895 89.2029 31.4895C87.7905 31.4895 86.5268 32.1181 85.672 33.1165V31.4895H84.5569V40.734Z" fill="#525B70"/>
<path d="M96.8523 36.6664H104.992V36.1118C104.992 33.5603 102.911 31.4895 100.346 31.4895C97.7815 31.4895 95.7001 33.5603 95.7001 36.1118C95.7001 38.6633 97.7815 40.734 100.346 40.734C101.628 40.734 102.799 40.2163 103.636 39.3658L102.836 38.6078C102.205 39.2364 101.313 39.6247 100.346 39.6247C98.5806 39.6247 97.1311 38.3489 96.8523 36.6664ZM100.346 32.5988C102.112 32.5988 103.561 33.8746 103.821 35.5571H96.8523C97.1311 33.8746 98.5806 32.5988 100.346 32.5988Z" fill="#525B70"/>
<path d="M115.02 40.734H116.135V36.1118C116.135 33.5603 114.054 31.4895 111.489 31.4895C108.925 31.4895 106.843 33.5603 106.843 36.1118C106.843 38.6633 108.925 40.734 111.489 40.734C112.902 40.734 114.165 40.1054 115.02 39.1255V40.734ZM107.958 36.1118C107.958 34.1704 109.538 32.5988 111.489 32.5988C113.441 32.5988 115.02 34.1704 115.02 36.1118C115.02 38.1456 113.385 39.6247 111.489 39.6247C109.538 39.6247 107.958 38.0531 107.958 36.1118Z" fill="#525B70"/>
<path d="M55.8972 7.58301L49.7261 21.4499H50.9343L52.3469 18.3067H61.3063L62.7189 21.4499H63.9271L57.756 7.58301H55.8972ZM56.6221 8.69236H57.0311L60.823 17.1974H52.8302L56.6221 8.69236Z" fill="#481331"/>
<path d="M64.1849 12.2053H62.9953L67.1218 21.4499H68.33L72.4564 12.2053H71.2482L67.7166 20.1002L64.1849 12.2053Z" fill="#481331"/>
<path d="M81.1938 21.4499H82.3091V16.8276C82.3091 14.2761 80.2273 12.2053 77.6622 12.2053C75.0971 12.2053 73.0152 14.2761 73.0152 16.8276C73.0152 19.3791 75.0971 21.4499 77.6622 21.4499C79.0748 21.4499 80.3388 20.8212 81.1938 19.8413V21.4499ZM74.1305 16.8276C74.1305 14.8862 75.7105 13.3146 77.6622 13.3146C79.6139 13.3146 81.1938 14.8862 81.1938 16.8276C81.1938 18.8614 79.5581 20.3405 77.6622 20.3405C75.7105 20.3405 74.1305 18.7689 74.1305 16.8276Z" fill="#481331"/>
<path d="M84.1606 21.4499H85.2759V7.58301H84.1606V21.4499Z" fill="#481331"/>
<path d="M95.3162 16.8276C95.3162 18.7689 93.7362 20.3405 91.7845 20.3405C89.8328 20.3405 88.2528 18.7689 88.2528 16.8276V12.2053H87.1376V16.8276C87.1376 19.3791 89.2194 21.4499 91.7845 21.4499C94.3496 21.4499 96.4315 19.3791 96.4315 16.8276V12.2053H95.3162V16.8276ZM93.2715 10.8001L92.7139 9.83868L90.2975 11.2439L90.8551 12.2053L93.2715 10.8001Z" fill="#481331"/>
<path d="M98.283 16.8276C98.283 19.3791 100.365 21.4499 102.93 21.4499C105.495 21.4499 107.577 19.3791 107.577 16.8276C107.577 14.2761 105.495 12.2053 102.93 12.2053C100.365 12.2053 98.283 14.2761 98.283 16.8276ZM99.3982 16.8276C99.3982 14.8862 100.978 13.3146 102.93 13.3146C104.882 13.3146 106.462 14.8862 106.462 16.8276C106.462 18.7689 104.882 20.3405 102.93 20.3405C100.978 20.3405 99.3982 18.7689 99.3982 16.8276Z" fill="#481331"/>
<defs>
<filter id="filter0_f_221_2182" x="9.05995" y="52.7103" width="21.2448" height="3.76388" filterUnits="userSpaceOnUse" color-interpolation-filters="sRGB">
<feFlood flood-opacity="0" result="BackgroundImageFix"/>
<feBlend mode="normal" in="SourceGraphic" in2="BackgroundImageFix" result="shape"/>
<feGaussianBlur stdDeviation="0.325004" result="effect1_foregroundBlur_221_2182"/>
</filter>
<linearGradient id="paint0_linear_221_2182" x1="19.623" y1="34.5592" x2="26.2333" y2="2.21818" gradientUnits="userSpaceOnUse">
<stop stop-color="#812459"/>
<stop offset="1" stop-color="#C23987"/>
</linearGradient>
</defs>
</svg>
